<svg width="17" height="18" viewBox="0 0 17 18" fill="none" xmlns="http://www.w3.org/2000/svg">
<path d="M6.09607 0.899597C7.67093 0.899636 9.01048 1.44782 10.1058 2.5412C11.2013 3.63468 11.7504 4.9739 11.7504 6.54999C11.7504 7.25209 11.6211 7.93685 11.3646 8.6037C11.1285 9.21769 10.8238 9.74633 10.4525 10.1906L16.7123 16.4504L16.6058 16.5558L16.1058 17.0558L16.0004 17.1623L9.73962 10.9016C9.2505 11.3038 8.69652 11.6181 8.07556 11.841C7.41078 12.0796 6.75207 12.2004 6.09998 12.2004C4.52398 12.2004 3.18471 11.6525 2.09119 10.5598C0.997743 9.46704 0.449585 8.12874 0.449585 6.55389C0.449624 4.9792 0.996844 3.63944 2.08923 2.54413C3.18195 1.44864 4.52106 0.899597 6.09607 0.899597ZM6.09998 1.8996C4.78834 1.8996 3.68921 2.34747 2.79333 3.24335C1.89746 4.13923 1.44958 5.23835 1.44958 6.54999C1.44958 7.86163 1.89746 8.96075 2.79333 9.85663C3.68921 10.7525 4.78834 11.2004 6.09998 11.2004C7.41162 11.2004 8.51074 10.7525 9.40662 9.85663C10.3025 8.96075 10.7504 7.86163 10.7504 6.54999C10.7504 5.23835 10.3025 4.13923 9.40662 3.24335C8.51074 2.34747 7.41162 1.8996 6.09998 1.8996Z" fill="#707070" stroke="#707070" stroke-width="0.3"/>
</svg>
